<svg width="24" height="25" viewBox="0 0 24 25" fill="none" xmlns="http://www.w3.org/2000/svg">
<path d="M11 23.4999C11 21.1402 12.9714 19.2273 17 19.2273C21.0286 19.2273 23 21.1402 23 23.4999C23 23.8754 22.7261 24.1797 22.3882 24.1797H11.6118C11.2739 24.1797 11 23.8754 11 23.4999Z" stroke="#444343" stroke-opacity="0.564706" stroke-width="1.5"/>
<path d="M19.25 14.4297C19.25 15.6723 18.2426 16.6797 17 16.6797C15.7574 16.6797 14.75 15.6723 14.75 14.4297C14.75 13.187 15.7574 12.1797 17 12.1797C18.2426 12.1797 19.25 13.187 19.25 14.4297Z" stroke="#444343" stroke-opacity="0.564706" stroke-width="1.5"/>
<path d="M9.4 20.782H3.39999C2.0745 20.782 0.999991 19.7074 1 18.382L1.00009 3.98202C1.0001 2.65654 2.07462 1.58203 3.40009 1.58203H14.2004C15.5258 1.58203 16.6004 2.65655 16.6004 3.98203V8.78203" stroke="#444343" stroke-opacity="0.564706" stroke-width="1.5" stroke-linecap="round" stroke-linejoin="round"/>
<path d="M4.5 5.67969H13.5" stroke="#444343" stroke-opacity="0.564706" stroke-linecap="round"/>
<line x1="4.5" y1="9.67969" x2="10.5" y2="9.67969" stroke="#444343" stroke-opacity="0.564706" stroke-linecap="round"/>
<path d="M6.5 13.1797L6.5 16.1797M8 14.6797L5 14.6797" stroke="#444343" stroke-opacity="0.564706" stroke-width="0.5" stroke-linecap="round"/>
</svg>
