<svg width="24" height="25" viewBox="0 0 24 25" fill="none" xmlns="http://www.w3.org/2000/svg">
<path d="M11.0002 23.5004C11.0002 21.1407 12.9716 19.2278 17.0002 19.2278C21.0288 19.2278 23.0002 21.1407 23.0002 23.5004C23.0002 23.8758 22.7263 24.1802 22.3884 24.1802H11.6119C11.2741 24.1802 11.0002 23.8758 11.0002 23.5004Z" stroke="#444343" stroke-width="1.5"/>
<path d="M19.2502 14.4302C19.2502 15.6728 18.2428 16.6802 17.0002 16.6802C15.7575 16.6802 14.7502 15.6728 14.7502 14.4302C14.7502 13.1875 15.7575 12.1802 17.0002 12.1802C18.2428 12.1802 19.2502 13.1875 19.2502 14.4302Z" stroke="#444343" stroke-width="1.5"/>
<path d="M9.4 20.7805H3.39999C2.0745 20.7805 0.999991 19.706 1 18.3805L1.00009 3.98055C1.0001 2.65508 2.07462 1.58057 3.40009 1.58057H14.2004C15.5258 1.58057 16.6004 2.65508 16.6004 3.98057V8.78057" stroke="#444343" stroke-width="1.5" stroke-linecap="round" stroke-linejoin="round"/>
<path d="M4.50018 5.68018H13.5002" stroke="#444343" stroke-linecap="round"/>
<line x1="4.50018" y1="9.68018" x2="10.5002" y2="9.68018" stroke="#444343" stroke-linecap="round"/>
<path d="M6.50018 13.1802L6.50018 16.1802M8.00018 14.6802L5.00018 14.6802" stroke="#444343" stroke-width="0.5" stroke-linecap="round"/>
</svg>
