<svg width="66" height="45" viewBox="0 0 66 45" fill="none" xmlns="http://www.w3.org/2000/svg">
<path d="M0 10C0 4.47715 4.47715 0 10 0H55.7583C61.2812 0 65.7583 4.47715 65.7583 10V35C65.7583 40.5228 61.2812 45 55.7583 45H10C4.47716 45 0 40.5228 0 35V10Z" fill="#00327A"/>
<path d="M28.1429 18.9018H37.7812M27.4851 13.4375V15.077M38.3125 13.4375V15.0768M41.5 18.0768L41.5 29.5625C41.5 31.2194 40.1569 32.5625 38.5 32.5625H27.5C25.8431 32.5625 24.5 31.2194 24.5 29.5625V18.0768C24.5 16.4199 25.8431 15.0768 27.5 15.0768H38.5C40.1569 15.0768 41.5 16.4199 41.5 18.0768Z" stroke="white" stroke-width="2" stroke-linecap="round" stroke-linejoin="round"/>
</svg>
