<svg width="60" height="60" viewBox="0 0 60 60" fill="none" xmlns="http://www.w3.org/2000/svg">
<g filter="url(#filter0_bd_1399_10004)">
<path d="M246 30.5C246 20.835 253.835 13 263.5 13C273.165 13 281 20.835 281 30.5C281 40.165 273.165 48 263.5 48C253.835 48 246 40.165 246 30.5Z" fill="url(#paint0_linear_1399_10004)" fill-opacity="0.3" shape-rendering="crispEdges"/>
<path d="M246.5 30.5C246.5 21.1112 254.111 13.5 263.5 13.5C272.889 13.5 280.5 21.1112 280.5 30.5C280.5 39.8888 272.889 47.5 263.5 47.5C254.111 47.5 246.5 39.8888 246.5 30.5Z" stroke="url(#paint1_linear_1399_10004)" stroke-opacity="0.5" shape-rendering="crispEdges"/>
</g>
<path d="M253.225 33.0148L254.248 33.3564C254.517 33.4464 254.804 33.4711 255.084 33.4283C255.365 33.3854 255.631 33.2764 255.861 33.1102C256.091 32.9439 256.279 32.7252 256.408 32.472C256.537 32.2189 256.605 31.9385 256.605 31.6542V28.0048L256.752 26.9697C256.967 25.4622 257.717 24.0831 258.865 23.0854C260.013 22.0878 261.481 21.5385 263 21.5385C264.519 21.5385 265.987 22.0878 267.135 23.0854C268.283 24.0831 269.033 25.4622 269.248 26.9697L269.395 28.0048V31.6542C269.399 31.7377 269.409 31.8209 269.425 31.9031C269.41 31.9513 269.4 32.001 269.395 32.0513V33.5898C269.394 34.4735 269.044 35.3207 268.42 35.9456C267.797 36.5705 266.951 36.9221 266.07 36.9231H265.673C265.515 36.4744 265.223 36.0857 264.836 35.8102C264.449 35.5347 263.986 35.3861 263.512 35.3846H262.488C261.878 35.3846 261.292 35.6278 260.86 36.0605C260.429 36.4933 260.186 37.0803 260.186 37.6923C260.186 38.3043 260.429 38.8913 260.86 39.3241C261.292 39.7569 261.878 40 262.488 40H263.512C263.986 39.9986 264.449 39.8499 264.836 39.5744C265.223 39.299 265.515 38.9102 265.673 38.4615H266.07C267.358 38.4601 268.594 37.9463 269.505 37.033C270.416 36.1197 270.929 34.8814 270.93 33.5898V33.4083C271.203 33.479 271.491 33.4608 271.752 33.3564L272.775 33.0148C273.132 32.896 273.443 32.6675 273.663 32.3618C273.882 32.0562 274 31.6889 274 31.3121V28.6879C274 28.3112 273.882 27.9439 273.663 27.6382C273.443 27.3325 273.133 27.104 272.776 26.9852L270.679 26.2847C270.318 24.5105 269.356 22.916 267.957 21.7707C266.558 20.6255 264.806 20 263 20C261.194 20 259.442 20.6255 258.043 21.7707C256.644 22.916 255.682 24.5105 255.321 26.2847L253.224 26.9852C252.867 27.104 252.557 27.3325 252.337 27.6382C252.118 27.9439 252 28.3112 252 28.6879V31.3121C252 31.6889 252.118 32.0563 252.338 32.362C252.557 32.6677 252.868 32.8961 253.225 33.0148ZM263.512 38.4615H262.488C262.285 38.4615 262.09 38.3805 261.946 38.2362C261.802 38.092 261.721 37.8963 261.721 37.6923C261.721 37.4883 261.802 37.2926 261.946 37.1484C262.09 37.0041 262.285 36.9231 262.488 36.9231H263.512C263.715 36.9231 263.91 37.0041 264.054 37.1484C264.198 37.2926 264.279 37.4883 264.279 37.6923C264.279 37.8963 264.198 38.092 264.054 38.2362C263.91 38.3805 263.715 38.4615 263.512 38.4615ZM270.93 27.9903L272.29 28.4445C272.341 28.4616 272.385 28.4942 272.417 28.5379C272.448 28.5816 272.465 28.6341 272.465 28.6879V31.3121C272.465 31.3659 272.448 31.4183 272.417 31.4619C272.386 31.5056 272.342 31.5383 272.291 31.5555L271.267 31.897C271.229 31.9099 271.188 31.9134 271.148 31.9073C271.108 31.9012 271.07 31.8856 271.037 31.8619C271.004 31.8382 270.977 31.807 270.958 31.7709C270.94 31.7348 270.93 31.6947 270.93 31.6541V27.9903ZM253.535 28.6879C253.535 28.6341 253.552 28.5816 253.583 28.5379C253.615 28.4942 253.659 28.4616 253.71 28.4445L255.07 27.9903V31.6542C255.07 31.6948 255.06 31.7348 255.042 31.7709C255.023 31.807 254.996 31.8382 254.963 31.8619C254.93 31.8856 254.892 31.9012 254.852 31.9073C254.812 31.9134 254.771 31.9099 254.733 31.897L253.71 31.5555C253.659 31.5385 253.615 31.5058 253.583 31.4621C253.552 31.4184 253.535 31.366 253.535 31.3121V28.6879Z" fill="#00327A"/>
<path d="M269 29C269 27.8133 268.648 26.6533 267.989 25.6666C267.33 24.6799 266.392 23.9109 265.296 23.4567C264.2 23.0026 262.993 22.8838 261.829 23.1153C260.666 23.3468 259.596 23.9182 258.757 24.7574C257.918 25.5965 257.347 26.6656 257.115 27.8295C256.884 28.9933 257.003 30.1997 257.457 31.2961C257.911 32.3925 258.68 33.3295 259.667 33.9888C260.653 34.6481 261.813 35 263 35C264.591 34.9981 266.116 34.3654 267.241 33.2406C268.365 32.1158 268.998 30.5907 269 29ZM258.565 29C258.565 28.1229 258.825 27.2655 259.313 26.5362C259.8 25.8069 260.493 25.2385 261.303 24.9028C262.113 24.5671 263.005 24.4793 263.865 24.6504C264.725 24.8216 265.516 25.2439 266.136 25.8641C266.756 26.4844 267.178 27.2746 267.35 28.1348C267.521 28.9951 267.433 29.8868 267.097 30.6971C266.762 31.5075 266.193 32.2001 265.464 32.6874C264.735 33.1747 263.877 33.4348 263 33.4348C261.824 33.4334 260.697 32.9657 259.866 32.1343C259.034 31.3029 258.567 30.1757 258.565 29Z" fill="#00327A"/>
<defs>
<filter id="filter0_bd_1399_10004" x="0" y="-233" width="535" height="535" filterUnits="userSpaceOnUse" color-interpolation-filters="sRGB">
<feFlood flood-opacity="0" result="BackgroundImageFix"/>
<feGaussianBlur in="BackgroundImageFix" stdDeviation="10"/>
<feComposite in2="SourceAlpha" operator="in" result="effect1_backgroundBlur_1399_10004"/>
<feColorMatrix in="SourceAlpha" type="matrix" values="0 0 0 0 0 0 0 0 0 0 0 0 0 0 0 0 0 0 127 0" result="hardAlpha"/>
<feOffset dx="4" dy="4"/>
<feGaussianBlur stdDeviation="125"/>
<feComposite in2="hardAlpha" operator="out"/>
<feColorMatrix type="matrix" values="0 0 0 0 0 0 0 0 0 0 0 0 0 0 0 0 0 0 0.25 0"/>
<feBlend mode="normal" in2="effect1_backgroundBlur_1399_10004" result="effect2_dropShadow_1399_10004"/>
<feBlend mode="normal" in="SourceGraphic" in2="effect2_dropShadow_1399_10004" result="shape"/>
</filter>
<linearGradient id="paint0_linear_1399_10004" x1="244.814" y1="12.3" x2="291.947" y2="37.26" gradientUnits="userSpaceOnUse">
<stop stop-color="#00327A"/>
<stop offset="1" stop-color="white" stop-opacity="0"/>
</linearGradient>
<linearGradient id="paint1_linear_1399_10004" x1="246" y1="13.7" x2="295.077" y2="37.6586" gradientUnits="userSpaceOnUse">
<stop stop-color="#00327A"/>
<stop offset="1" stop-color="#D9D9D9" stop-opacity="0"/>
</linearGradient>
</defs>
</svg>
