<svg width="28" height="28" viewBox="0 0 28 28" fill="none" xmlns="http://www.w3.org/2000/svg">
<path d="M9.35172 18.4147H6.0835C4.01243 18.4147 2.3335 16.9849 2.3335 14.8883C2.3335 12.7918 4.01243 11.0922 6.0835 11.0922C6.22433 11.0922 6.36336 11.1001 6.50016 11.1154V11.0922H6.55174C6.5177 10.8159 6.50016 10.5343 6.50016 10.2486C6.50016 6.52147 9.48493 3.5 13.1668 3.5C15.6601 3.5 17.8337 4.88553 18.9773 6.93748C19.2567 6.89587 19.5426 6.87432 19.8335 6.87432C23.0552 6.87432 25.6668 9.5181 25.6668 12.7794C25.6668 15.7542 23.4937 17.9456 20.6668 18.3549H17.646M13.5835 11.514V24.5M13.5835 24.5L10.6278 21.5842M13.5835 24.5L16.4611 21.5842" stroke="#444343" stroke-width="2" stroke-linecap="round" stroke-linejoin="round"/>
</svg>
