<svg width="24" height="25" viewBox="0 0 24 25" fill="none" xmlns="http://www.w3.org/2000/svg">
<path d="M11.5202 6.82047V9.70047C11.5202 10.2307 11.95 10.6605 12.4802 10.6605H15.3602M17.2802 2.98047H10.56C9.49958 2.98047 8.63997 3.84008 8.63996 4.90046V6.82047M17.2802 2.98047H17.8157C18.0861 2.98047 18.3434 3.09434 18.5297 3.29029C18.8096 3.58477 19.2529 4.03818 19.6802 4.42047C20.015 4.72008 20.5411 5.25779 20.8562 5.58457C21.0265 5.7613 21.1202 5.99726 21.1202 6.24274L21.1202 6.82047M17.2802 2.98047V5.86047C17.2802 6.39066 17.71 6.82047 18.2402 6.82047H21.1202M21.1202 6.82047L21.1199 16.4205C21.1199 17.4809 20.2603 18.3405 19.1999 18.3405H15.3599M13.9202 8.26047C13.4929 7.87818 13.0496 7.42477 12.7697 7.13029C12.5834 6.93434 12.3261 6.82047 12.0557 6.82047H4.79996C3.73958 6.82047 2.87996 7.68008 2.87996 8.74046L2.87988 20.2604C2.87988 21.3208 3.73949 22.1804 4.79988 22.1804L13.4399 22.1805C14.5003 22.1805 15.3599 21.3209 15.3599 20.2605L15.3602 10.0827C15.3602 9.83726 15.2665 9.6013 15.0962 9.42458C14.7811 9.09779 14.255 8.56008 13.9202 8.26047Z" stroke="#444343" stroke-linecap="round" stroke-linejoin="round"/>
</svg>
